<?xml version="1.0" encoding="UTF-8"?>
<svg id="_レイヤー_4" data-name="レイヤー 4" xmlns="http://www.w3.org/2000/svg" viewBox="0 0 24 24">
  <path d="m16.49,2.59c3.27,1.55,5.61,4.72,5.97,8.48h1.5C23.45,4.91,18.3.07,12.01.07l-.66.03,3.81,3.81,1.33-1.32Z"/>
  <path d="m7.53,21.55c-3.27-1.54-5.61-4.72-5.97-8.48H.06c.51,6.16,5.66,11,11.95,11l.66-.03-3.81-3.81-1.33,1.32Z"/>
  <path d="m14.4,5.4h-4.8c-1,0-1.8.8-1.8,1.8v9.6c0,1,.8,1.8,1.8,1.8h4.8c1,0,1.8-.8,1.8-1.8V7.2c0-1-.8-1.8-1.8-1.8Zm-1.2,12h-2.4v-.6h2.4v.6Zm1.95-1.8h-6.3V7.2h6.3v8.4Z"/>
</svg>