<svg xmlns="http://www.w3.org/2000/svg" viewBox="0 0 90 90"><defs><style>.cls-1{fill:#fff;}</style></defs><g id="ic_launcher_monochrome"><path class="cls-1" d="M60,36.43a5.58,5.58,0,0,0,0-1.49l1.6-1.25a.38.38,0,0,0,.09-.49l-1.52-2.62a.37.37,0,0,0-.46-.17l-1.89.76a5.51,5.51,0,0,0-1.28-.75l-.29-2a.37.37,0,0,0-.37-.32h-3a.37.37,0,0,0-.37.32l-.29,2a5.72,5.72,0,0,0-1.29.75L49,30.41a.36.36,0,0,0-.46.17L47,33.2a.38.38,0,0,0,.09.49l1.6,1.25a6.16,6.16,0,0,0,0,.75,6,6,0,0,0,0,.74l-1.6,1.25a.4.4,0,0,0-.09.49l1.52,2.63A.39.39,0,0,0,49,41l1.89-.76A5.37,5.37,0,0,0,52.2,41l.29,2a.37.37,0,0,0,.37.32h3a.37.37,0,0,0,.37-.32l.29-2a5.88,5.88,0,0,0,1.28-.75l1.89.76a.37.37,0,0,0,.46-.16l1.52-2.63a.38.38,0,0,0-.09-.49Zm-5.64,1.91A2.66,2.66,0,1,1,57,35.69,2.66,2.66,0,0,1,54.38,38.34Z"/><path class="cls-1" d="M61,47.92l-4-4-2.2,2.21,3.47,3.47-8.85,8.84L31.74,40.73l8.85-8.85,3.28,3.28,2.2-2.2-3.83-3.83a2.33,2.33,0,0,0-3.31,0L29,39.07a2.34,2.34,0,0,0,0,3.32L47.78,61.17a2.33,2.33,0,0,0,3.31,0L61,51.23A2.33,2.33,0,0,0,61,47.92Z"/><path class="cls-1" d="M37.91,60a16.41,16.41,0,0,1-9.33-13.25H26.24A18.75,18.75,0,0,0,44.92,63.91l1,0-6-6Z"/></g></svg>