<svg id="レイヤー_1" data-name="レイヤー 1" xmlns="http://www.w3.org/2000/svg" viewBox="0 0 108 108"><defs><style>.cls-1{fill-opacity:0.15;}.cls-2{fill:#fff;}</style></defs><title>ic_launcher_foreground</title><path class="cls-1" d="M77.3,41.8a8.52,8.52,0,0,0,0-2.18l2.34-1.83a.56.56,0,0,0,.13-.72l-2.22-3.84a.55.55,0,0,0-.68-.25L74.11,34.1A7.87,7.87,0,0,0,72.23,33l-.43-2.95a.53.53,0,0,0-.54-.47H66.81a.54.54,0,0,0-.54.47L65.85,33A8,8,0,0,0,64,34.1L61.2,33a.54.54,0,0,0-.68.25L58.3,37.07a.55.55,0,0,0,.13.72l2.35,1.83a7.47,7.47,0,0,0,0,2.18l-2.35,1.83a.57.57,0,0,0-.13.71l2.22,3.85a.56.56,0,0,0,.68.24L64,47.32a8,8,0,0,0,1.88,1.09l.42,3a.54.54,0,0,0,.54.46h4.45a.53.53,0,0,0,.54-.46l.43-3a8.61,8.61,0,0,0,1.88-1.09l2.76,1.11a.54.54,0,0,0,.68-.24l2.22-3.85a.55.55,0,0,0-.13-.71ZM69,44.6a3.89,3.89,0,1,1,3.89-3.89A3.89,3.89,0,0,1,69,44.6Z"/><path class="cls-1" d="M78.83,58.61,73,52.73,69.73,56,74.81,61,61.86,74,36,48.09l12.95-13L53.71,40l3.23-3.23-5.61-5.61a3.41,3.41,0,0,0-4.85,0L31.93,45.67a3.41,3.41,0,0,0,0,4.85L59.43,78a3.41,3.41,0,0,0,4.85,0L78.83,63.47A3.42,3.42,0,0,0,78.83,58.61Z"/><path class="cls-1" d="M53.71,40l3.23-3.23M45,76.25a24,24,0,0,1-13.66-19.4H27.93A27.44,27.44,0,0,0,55.27,82L56.78,82l-8.72-8.74Z"/><path class="cls-2" d="M77.3,40.32a9.81,9.81,0,0,0,.08-1.09,9.46,9.46,0,0,0-.08-1.09l2.34-1.84a.56.56,0,0,0,.14-.71l-2.23-3.84a.54.54,0,0,0-.67-.25l-2.77,1.11a8.38,8.38,0,0,0-1.88-1.09l-.42-2.94a.55.55,0,0,0-.55-.47H66.82a.54.54,0,0,0-.55.47l-.42,2.94A8.78,8.78,0,0,0,64,32.61L61.2,31.5a.55.55,0,0,0-.68.25L58.3,35.59a.55.55,0,0,0,.13.71l2.35,1.84a9.63,9.63,0,0,0-.08,1.09,10,10,0,0,0,.08,1.09l-2.35,1.83a.57.57,0,0,0-.13.71l2.22,3.85a.57.57,0,0,0,.68.24L64,45.84a8,8,0,0,0,1.88,1.09l.42,3a.54.54,0,0,0,.55.46h4.44a.55.55,0,0,0,.55-.46l.42-3a8.78,8.78,0,0,0,1.88-1.09L76.88,47a.54.54,0,0,0,.67-.24l2.23-3.85a.57.57,0,0,0-.14-.71ZM69,43.12a3.89,3.89,0,1,1,3.89-3.89A3.89,3.89,0,0,1,69,43.12Z"/><path class="cls-2" d="M78.78,57.13,72.9,51.25l-3.23,3.23,5.08,5.08-13,13L35.9,46.61l13-13,4.81,4.8,3.22-3.22-5.6-5.61a3.41,3.41,0,0,0-4.85,0L31.88,44.18a3.41,3.41,0,0,0,0,4.85l27.5,27.5a3.41,3.41,0,0,0,4.85,0L78.78,62A3.41,3.41,0,0,0,78.78,57.13Z"/><path class="cls-2" d="M53.63,38.46l3.23-3.22M44.94,74.77a24,24,0,0,1-13.66-19.4H27.85A27.45,27.45,0,0,0,55.19,80.54l1.51-.07L48,71.73Z"/></svg>