<svg xmlns="http://www.w3.org/2000/svg" viewBox="0 0 48 48">
    <defs>
        <style>.cls-1{fill-opacity:0.15;}.cls-2{fill:#2196f3;}.cls-3{fill:#fff;}</style>
    </defs>
    <circle class="cls-1" cx="24" cy="24.5" r="23.5" />
    <circle class="cls-2" cx="24" cy="23.5" r="23.5" />
    <path class="cls-1"
        d="M39.67,16.11a5.43,5.43,0,0,0,0-1.47l1.58-1.23a.38.38,0,0,0,.09-.48l-1.5-2.6a.38.38,0,0,0-.46-.16l-1.86.75a5.55,5.55,0,0,0-1.27-.74l-.29-2a.36.36,0,0,0-.36-.31h-3a.36.36,0,0,0-.37.31l-.29,2a5.71,5.71,0,0,0-1.26.74l-1.87-.75a.37.37,0,0,0-.46.16l-1.5,2.6a.37.37,0,0,0,.09.48l1.58,1.23a6,6,0,0,0-.05.74,5.84,5.84,0,0,0,.05.73l-1.58,1.24a.38.38,0,0,0-.09.48l1.5,2.6a.38.38,0,0,0,.46.16l1.87-.75a5.71,5.71,0,0,0,1.26.74l.29,2a.37.37,0,0,0,.37.32h3a.37.37,0,0,0,.36-.32l.29-2a5.94,5.94,0,0,0,1.27-.74l1.86.75a.37.37,0,0,0,.46-.16l1.5-2.6a.38.38,0,0,0-.09-.48ZM34.1,18a2.63,2.63,0,1,1,2.62-2.62A2.62,2.62,0,0,1,34.1,18Z" />
    <path class="cls-1"
        d="M40.71,27.46l-4-4-2.18,2.18L38,29.1l-8.74,8.73L11.78,20.36l8.74-8.74,3.24,3.24,2.17-2.17L22.15,8.91a2.28,2.28,0,0,0-3.27,0L9.06,18.72a2.31,2.31,0,0,0,0,3.28L27.62,40.55a2.3,2.3,0,0,0,3.27,0l9.82-9.82A2.3,2.3,0,0,0,40.71,27.46Z" />
    <path class="cls-1" d="M17.89,39.36A16.16,16.16,0,0,1,8.68,26.27H6.36a18.52,18.52,0,0,0,18.45,17l1,0-5.89-5.9Z" />
    <path class="cls-3"
        d="M39.67,15.11a5.43,5.43,0,0,0,0-1.47l1.58-1.23a.37.37,0,0,0,.09-.48l-1.5-2.6a.37.37,0,0,0-.45-.16l-1.87.75a5.55,5.55,0,0,0-1.27-.74l-.28-2a.37.37,0,0,0-.37-.31h-3a.36.36,0,0,0-.37.31l-.28,2a5.55,5.55,0,0,0-1.27.74l-1.87-.75a.37.37,0,0,0-.46.16l-1.5,2.6a.38.38,0,0,0,.09.48l1.59,1.23a6,6,0,0,0-.06.74,5.83,5.83,0,0,0,.06.73l-1.59,1.24a.38.38,0,0,0-.09.48l1.5,2.6a.39.39,0,0,0,.46.16l1.87-.75a5.55,5.55,0,0,0,1.27.74l.28,2a.37.37,0,0,0,.37.32h3a.38.38,0,0,0,.37-.32l.28-2a5.94,5.94,0,0,0,1.27-.74l1.87.75a.36.36,0,0,0,.45-.16l1.5-2.6a.37.37,0,0,0-.09-.48ZM34.1,17a2.63,2.63,0,1,1,2.62-2.62A2.62,2.62,0,0,1,34.1,17Z" />
    <path class="cls-3"
        d="M40.67,26.46l-4-4-2.18,2.18L38,28.1l-8.74,8.73L11.74,19.36l8.74-8.74,3.24,3.24,2.18-2.17L22.11,7.91a2.28,2.28,0,0,0-3.27,0L9,17.72A2.31,2.31,0,0,0,9,21L27.58,39.55a2.3,2.3,0,0,0,3.27,0l9.82-9.82A2.3,2.3,0,0,0,40.67,26.46Z" />
    <path class="cls-3" d="M17.84,38.36A16.19,16.19,0,0,1,8.62,25.27H6.31a18.5,18.5,0,0,0,18.44,17l1,0-5.88-5.9Z" />
</svg>
