<svg id="ic_launcher_monochrome" xmlns="http://www.w3.org/2000/svg" viewBox="0 0 108 108"><defs><style>.cls-1{fill:#fff;}</style></defs><path class="cls-1" d="M71.8,43.37a5.77,5.77,0,0,0,0-1.66l1.78-1.39a.43.43,0,0,0,.1-.54L72,36.86a.42.42,0,0,0-.51-.18l-2.1.84A6,6,0,0,0,68,36.69l-.32-2.23a.4.4,0,0,0-.41-.36H63.84a.4.4,0,0,0-.41.36l-.32,2.23a6.36,6.36,0,0,0-1.43.83l-2.1-.84a.41.41,0,0,0-.51.18l-1.69,2.92a.42.42,0,0,0,.1.54l1.78,1.39a5.77,5.77,0,0,0,0,1.66l-1.78,1.39a.43.43,0,0,0-.1.54l1.69,2.92a.42.42,0,0,0,.51.18l2.1-.84a6,6,0,0,0,1.43.83l.32,2.23a.4.4,0,0,0,.41.36h3.38a.4.4,0,0,0,.41-.36L68,48.39a6.36,6.36,0,0,0,1.43-.83l2.1.84a.41.41,0,0,0,.51-.18l1.69-2.92a.43.43,0,0,0-.1-.54Zm-6.27,2.12a2.95,2.95,0,1,1,3-3A2.95,2.95,0,0,1,65.53,45.49Z"/><path class="cls-1" d="M72.92,56.13l-4.46-4.46L66,54.12,69.87,58,60,67.8,40.38,48.14l9.83-9.83L53.85,42l2.45-2.45-4.25-4.25a2.58,2.58,0,0,0-3.68,0l-11,11a2.6,2.6,0,0,0,0,3.68L58.2,70.86a2.6,2.6,0,0,0,3.68,0l11-11A2.58,2.58,0,0,0,72.92,56.13Z"/><path class="cls-1" d="M47.24,69.52A18.2,18.2,0,0,1,36.87,54.79H34.26A20.84,20.84,0,0,0,55,73.9l1.14-.05-6.61-6.64Z"/></svg>