<svg xmlns="http://www.w3.org/2000/svg" viewBox="0 0 24 24">
    <path
        d="M6,6A1,1,0,0,0,5,7V8H1.5a1.5,1.5,0,0,0,0,3H5v2H1.5a1.5,1.5,0,0,0,0,3H5v1a1,1,0,0,0,1,1H16V6ZM16,3.5A1.5,1.5,0,0,0,14.5,2h-7a1.5,1.5,0,0,0,0,3h7A1.5,1.5,0,0,0,16,3.5Zm0,17A1.5,1.5,0,0,0,14.5,19h-7a1.5,1.5,0,0,0,0,3h7A1.5,1.5,0,0,0,16,20.5Zm5.84-5,1.3,1.3a.5.5,0,1,0,.71-.71l-1.48-1.48A5.84,5.84,0,0,0,23,12a5.92,5.92,0,0,0-.63-2.66l1.48-1.49a.5.5,0,1,0-.71-.71L21.83,8.45A6,6,0,0,0,17,6V18A6,6,0,0,0,21.84,15.53ZM19,10V9h1v1Zm0,5V14h1v1Z" />
</svg>
