<svg xmlns="http://www.w3.org/2000/svg" viewBox="0 0 24 24">
    <path
        d="M18,6a1,1,0,0,0-1-1H16V1.5a1.5,1.5,0,0,0-3,0V5H11V1.5a1.5,1.5,0,0,0-3,0V5H7A1,1,0,0,0,6,6V16H18Zm2.5,10A1.5,1.5,0,0,0,22,14.5v-7a1.5,1.5,0,0,0-3,0v7A1.5,1.5,0,0,0,20.5,16Zm-17,0A1.5,1.5,0,0,0,5,14.5v-7a1.5,1.5,0,0,0-3,0v7A1.5,1.5,0,0,0,3.5,16Zm5,5.84-1.3,1.3a.5.5,0,0,0,.71.71l1.48-1.48A5.84,5.84,0,0,0,12,23a5.92,5.92,0,0,0,2.66-.63l1.49,1.48a.5.5,0,0,0,.71-.71l-1.31-1.31A6,6,0,0,0,18,17H6A6,6,0,0,0,8.47,21.84ZM14,19h1v1H14ZM9,19h1v1H9Z" />
</svg>
