<?xml version="1.0" encoding="UTF-8"?>
<svg id="_レイヤー_8" data-name="レイヤー 8" xmlns="http://www.w3.org/2000/svg" viewBox="0 0 24 24">
  <path d="m16.49,2.59c3.27,1.55,5.61,4.72,5.97,8.48h1.5C23.45,4.91,18.3.07,12.01.07l-.66.03,3.81,3.81,1.33-1.32Z"/>
  <path d="m7.53,21.55c-3.27-1.54-5.61-4.72-5.97-8.48H.06c.51,6.16,5.66,11,11.95,11l.66-.03-3.81-3.81-1.33,1.32Z"/>
  <path d="m13,6.99h3l-4-3.99-4,3.99h3v10.02h-3l4,3.99,4-3.99h-3V6.99Zm-6.01,4.01v-3s-3.99,4-3.99,4l3.99,4v-3h10.02v3s3.99-4,3.99-4l-3.99-4v3H6.99Z"/>
</svg>