<?xml version="1.0" encoding="UTF-8"?>
<svg id="_レイヤー_10" data-name="レイヤー 10" xmlns="http://www.w3.org/2000/svg" viewBox="0 0 24 24">
  <path d="m16.49,2.59c3.27,1.55,5.61,4.72,5.97,8.48h1.5C23.45,4.91,18.3.07,12.01.07l-.66.03,3.81,3.81,1.33-1.32Z"/>
  <path d="m7.53,21.55c-3.27-1.54-5.61-4.72-5.97-8.48H.06c.51,6.16,5.66,11,11.95,11l.66-.03-3.81-3.81-1.33,1.32Z"/>
  <g>
    <path d="m12,3.71l2.79,2.78h-2.29v4.51h-1v-4.51h-2.29l2.79-2.78m0-.71l-4,3.99h3v4.51h2v-4.51h3l-4-3.99h0Z"/>
    <polygon points="11 17.01 8 17.01 12 21 16 17.01 13 17.01 13 13 11 13 11 17.01"/>
    <polygon points="6.99 11 6.99 8 3 12 6.99 16 6.99 13 11 13 11 11 6.99 11"/>
    <path d="m17.51,9.21l2.78,2.79-2.78,2.79v-2.29h-4.51v-1h4.51v-2.29m-.5-1.21v3h-4.51v2h4.51v3l3.99-4-3.99-4h0Z"/>
    <rect x="11" y="11" width="2" height="2"/>
  </g>
</svg>