<?xml version="1.0" encoding="UTF-8"?>
<svg id="_レイヤー_9" data-name="レイヤー 9" xmlns="http://www.w3.org/2000/svg" viewBox="0 0 24 24">
  <path d="m16.49,2.59c3.27,1.55,5.61,4.72,5.97,8.48h1.5C23.45,4.91,18.3.07,12.01.07l-.66.03,3.81,3.81,1.33-1.32Z"/>
  <path d="m7.53,21.55c-3.27-1.54-5.61-4.72-5.97-8.48H.06c.51,6.16,5.66,11,11.95,11l.66-.03-3.81-3.81-1.33,1.32Z"/>
  <g>
    <polygon points="13 6.99 16 6.99 12 3 8 6.99 11 6.99 11 11 13 11 13 6.99"/>
    <path d="m12.5,13v4.51h2.29l-2.79,2.78-2.79-2.78h2.29v-4.51h1m.5-.5h-2v4.51h-3l4,3.99,4-3.99h-3v-4.51h0Z"/>
    <path d="m6.49,9.21v2.29h4.51v1h-4.51v2.29l-2.78-2.79,2.78-2.79m.5-1.21l-3.99,4,3.99,4v-3h4.51v-2h-4.51v-3h0Z"/>
    <polygon points="21 12 17.01 8 17.01 11 13 11 13 13 17.01 13 17.01 16 21 12"/>
    <rect x="11" y="11" width="2" height="2"/>
  </g>
</svg>