<svg id="ic_tile" xmlns="http://www.w3.org/2000/svg" viewBox="0 0 48 48"><defs><style>.cls-1{fill:#fff;}</style></defs><path class="cls-1" d="M39.82,14.55a5.43,5.43,0,0,0,0-1.47l1.58-1.24a.37.37,0,0,0,.09-.48L40,8.77a.37.37,0,0,0-.45-.17l-1.87.75a5.17,5.17,0,0,0-1.27-.73l-.28-2a.38.38,0,0,0-.37-.32h-3a.37.37,0,0,0-.37.32l-.28,2a5.52,5.52,0,0,0-1.27.73L29,8.6a.36.36,0,0,0-.46.17L27,11.36a.38.38,0,0,0,.09.48l1.59,1.24a6,6,0,0,0-.06.73,6,6,0,0,0,.06.74l-1.59,1.24a.38.38,0,0,0-.09.48l1.5,2.59A.38.38,0,0,0,29,19l1.87-.75A5.52,5.52,0,0,0,32.1,19l.28,2a.36.36,0,0,0,.37.31h3a.37.37,0,0,0,.37-.31l.28-2a5.91,5.91,0,0,0,1.27-.73l1.87.75a.36.36,0,0,0,.45-.17l1.5-2.59a.37.37,0,0,0-.09-.48Zm-5.57,1.89a2.63,2.63,0,1,1,2.62-2.63A2.63,2.63,0,0,1,34.25,16.44Z"/><path class="cls-1" d="M40.82,25.89l-4-4L34.68,24.1l3.42,3.43-8.73,8.74L11.89,18.79l8.74-8.73,3.24,3.24,2.18-2.18L22.26,7.34a2.3,2.3,0,0,0-3.27,0L9.17,17.16a2.3,2.3,0,0,0,0,3.27L27.73,39A2.3,2.3,0,0,0,31,39l9.82-9.82A2.31,2.31,0,0,0,40.82,25.89Z"/><path class="cls-1" d="M18,37.8A16.21,16.21,0,0,1,8.77,24.71H6.46a18.5,18.5,0,0,0,18.44,17l1,0L20,35.74Z"/></svg>