<svg xmlns="http://www.w3.org/2000/svg" viewBox="0 0 24 24">
    <path
        d="M15.1,23h-2V21h2Zm-4,0h-2V21h2ZM6.6,22.65A3,3,0,0,1,5,20.23l2-.15a1,1,0,0,0,.54.81Zm11-.11-1.07-1.69A1,1,0,0,0,17,20l2,0v0A3,3,0,0,1,17.6,22.54ZM7,18.14H5v-2H7ZM19,18H17v-2h2ZM7,14.1H5v-2H7Zm12-.18H17v-2h2ZM7,10.07H5v-2H7Zm12-.18H17v-2h2ZM7,6H5V4H7Zm12-.18H17V4l2-.26A2.26,2.26,0,0,1,19,4ZM7.47,3.16,6.39,1.47A3,3,0,0,1,8,1h.88V3H8A.92.92,0,0,0,7.47,3.16Zm9-.05A1.07,1.07,0,0,0,16,3H14.94V1H16a3,3,0,0,1,1.38.34ZM12.92,3h-2V1h2Z" />
</svg>
